<svg viewBox="0 0 400 400" xmlns="http://www.w3.org/2000/svg">
  <path d="M200 100 C 150 50, 100 50, 50 100 C 0 150, 50 200, 100 250 C 150 300, 175 300, 200 250" fill="white" stroke="black" stroke-width="2" />
  <path d="M200 100 C 250 50, 300 50, 350 100 C 400 150, 350 200, 300 250 C 250 300, 225 300, 200 250" fill="white" stroke="black" stroke-width="2" />
  <path d="M200 100 L 200 250" stroke="black" stroke-width="2" />
  <circle cx="200" cy="80" r="10" fill="white" stroke="black" stroke-width="2" />
  <path d="M190 70 L 170 50" stroke="black" stroke-width="2" />
  <path d="M210 70 L 230 50" stroke="black" stroke-width="2" />
  <path d="M120 150 C 140 160, 160 160, 180 150" fill="none" stroke="black" stroke-width="1" />
  <path d="M220 150 C 240 160, 260 160, 280 150" fill="none" stroke="black" stroke-width="1" />
  <circle cx="150" cy="120" r="5" fill="white" stroke="black" stroke-width="1" />
  <circle cx="250" cy="120" r="5" fill="white" stroke="black" stroke-width="1" />
  <circle cx="130" cy="180" r="8" fill="white" stroke="black" stroke-width="1" />
  <circle cx="270" cy="180" r="8" fill="white" stroke="black" stroke-width="1" />
  <circle cx="160" cy="200" r="10" fill="white" stroke="black" stroke-width="1" />
  <circle cx="240" cy="200" r="10" fill="white" stroke="black" stroke-width="1" />
</svg>

