<svg viewBox="0 0 400 400" xmlns="http://www.w3.org/2000/svg">
  <!-- Main castle structure -->
  <rect x="120" y="200" width="160" height="150" fill="white" stroke="black" stroke-width="2" />
  
  <!-- Castle towers -->
  <rect x="100" y="180" width="40" height="170" fill="white" stroke="black" stroke-width="2" />
  <rect x="260" y="180" width="40" height="170" fill="white" stroke="black" stroke-width="2" />
  <rect x="160" y="150" width="80" height="200" fill="white" stroke="black" stroke-width="2" />
  
  <!-- Tower tops -->
  <path d="M 100 180 L 110 160 L 130 160 L 140 180 Z" fill="white" stroke="black" stroke-width="2" />
  <path d="M 260 180 L 270 160 L 290 160 L 300 180 Z" fill="white" stroke="black" stroke-width="2" />
  <path d="M 160 150 L 170 130 L 230 130 L 240 150 Z" fill="white" stroke="black" stroke-width="2" />
  
  <!-- Windows -->
  <rect x="110" y="210" width="20" height="30" fill="white" stroke="black" stroke-width="2" />
  <rect x="110" y="260" width="20" height="30" fill="white" stroke="black" stroke-width="2" />
  <rect x="270" y="210" width="20" height="30" fill="white" stroke="black" stroke-width="2" />
  <rect x="270" y="260" width="20" height="30" fill="white" stroke="black" stroke-width="2" />
  
  <rect x="140" y="220" width="30" height="40" fill="white" stroke="black" stroke-width="2" />
  <rect x="230" y="220" width="30" height="40" fill="white" stroke="black" stroke-width="2" />
  
  <!-- Main door -->
  <path d="M 180 350 L 180 280 L 220 280 L 220 350 Z" fill="white" stroke="black" stroke-width="2" />
  <circle cx="190" cy="320" r="5" fill="white" stroke="black" stroke-width="2" />
  
  <!-- Flags -->
  <path d="M 110 160 L 110 130 L 130 145 L 110 160" fill="white" stroke="black" stroke-width="2" />
  <path d="M 290 160 L 290 130 L 270 145 L 290 160" fill="white" stroke="black" stroke-width="2" />
  <path d="M 200 130 L 200 100 L 220 115 L 200 130" fill="white" stroke="black" stroke-width="2" />
  
  <!-- Clouds -->
  <path d="M 50 100 C 60 80, 80 80, 90 90 C 100 70, 120 70, 130 90 C 140 80, 160 80, 170 100 Z" fill="white" stroke="black" stroke-width="1" />
  <path d="M 250 80 C 260 60, 280 60, 290 70 C 300 50, 320 50, 330 70 C 340 60, 360 60, 370 80 Z" fill="white" stroke="black" stroke-width="1" />
  
  <!-- Sun -->
  <circle cx="50" cy="50" r="20" fill="white" stroke="black" stroke-width="1" />
  <path d="M 50 20 L 50 10" stroke="black" stroke-width="1" />
  <path d="M 50 80 L 50 90" stroke="black" stroke-width="1" />
  <path d="M 20 50 L 10 50" stroke="black" stroke-width="1" />
  <path d="M 80 50 L 90 50" stroke="black" stroke-width="1" />
  <path d="M 30 30 L 20 20" stroke="black" stroke-width="1" />
  <path d="M 70 70 L 80 80" stroke="black" stroke-width="1" />
  <path d="M 30 70 L 20 80" stroke="black" stroke-width="1" />
  <path d="M 70 30 L 80 20" stroke="black" stroke-width="1" />
</svg>

