<svg viewBox="0 0 400 300" xmlns="http://www.w3.org/2000/svg">
  <path d="M 120 200 C 100 180, 90 150, 100 120 C 110 90, 130 80, 150 70 C 170 60, 190 50, 210 60 C 230 70, 240 90, 250 110 C 260 130, 270 150, 280 170 C 290 190, 300 210, 290 230 C 280 250, 260 260, 240 250 C 220 240, 210 220, 200 200 C 190 180, 180 160, 170 180 C 160 200, 150 220, 140 210 C 130 200, 140 220, 120 200 Z" fill="white" stroke="black" stroke-width="2" />
  <circle cx="160" cy="90" r="10" fill="white" stroke="black" stroke-width="2" />
  <path d="M 250 110 L 300 90 L 320 70" fill="none" stroke="black" stroke-width="2" />
  <path d="M 240 130 L 290 140 L 310 130" fill="none" stroke="black" stroke-width="2" />
  <path d="M 120 200 L 100 230 L 90 260" fill="none" stroke="black" stroke-width="2" />
  <path d="M 140 210 L 130 240 L 120 270" fill="none" stroke="black" stroke-width="2" />
  <path d="M 210 60 L 220 40 L 230 20 L 240 10 L 250 20 L 240 30 L 230 40 L 220 50" fill="none" stroke="black" stroke-width="2" />
  <path d="M 190 50 L 180 30 L 170 10 L 160 5 L 150 10 L 160 20 L 170 30 L 180 40" fill="none" stroke="black" stroke-width="2" />
</svg>

