<svg viewBox="0 0 400 400" xmlns="http://www.w3.org/2000/svg">
  <circle cx="200" cy="200" r="150" fill="white" stroke="black" stroke-width="1" />
  <circle cx="200" cy="200" r="120" fill="white" stroke="black" stroke-width="1" />
  <circle cx="200" cy="200" r="90" fill="white" stroke="black" stroke-width="1" />
  <circle cx="200" cy="200" r="60" fill="white" stroke="black" stroke-width="1" />
  <circle cx="200" cy="200" r="30" fill="white" stroke="black" stroke-width="1" />
  
  <!-- Radial lines -->
  <path d="M 200 50 L 200 350" stroke="black" stroke-width="1" />
  <path d="M 50 200 L 350 200" stroke="black" stroke-width="1" />
  <path d="M 95 95 L 305 305" stroke="black" stroke-width="1" />
  <path d="M 95 305 L 305 95" stroke="black" stroke-width="1" />
  
  <!-- Decorative elements -->
  <path d="M 200 50 C 220 70, 220 90, 200 110 C 180 90, 180 70, 200 50" fill="white" stroke="black" stroke-width="1" />
  <path d="M 200 290 C 220 310, 220 330, 200 350 C 180 330, 180 310, 200 290" fill="white" stroke="black" stroke-width="1" />
  <path d="M 50 200 C 70 220, 90 220, 110 200 C 90 180, 70 180, 50 200" fill="white" stroke="black" stroke-width="1" />
  <path d="M 290 200 C 310 220, 330 220, 350 200 C 330 180, 310 180, 290 200" fill="white" stroke="black" stroke-width="1" />
  
  <path d="M 95 95 C 110 110, 130 110, 145 95 C 130 80, 110 80, 95 95" fill="white" stroke="black" stroke-width="1" />
  <path d="M 255 95 C 270 110, 290 110, 305 95 C 290 80, 270 80, 255 95" fill="white" stroke="black" stroke-width="1" />
  <path d="M 95 305 C 110 290, 130 290, 145 305 C 130 320, 110 320, 95 305" fill="white" stroke="black" stroke-width="1" />
  <path d="M 255 305 C 270 290, 290 290, 305 305 C 290 320, 270 320, 255 305" fill="white" stroke="black" stroke-width="1" />
  
  <!-- Additional decorative elements -->
  <path d="M 200 170 C 210 180, 210 190, 200 200 C 190 190, 190 180, 200 170" fill="white" stroke="black" stroke-width="1" />
  <path d="M 200 200 C 210 210, 210 220, 200 230 C 190 220, 190 210, 200 200" fill="white" stroke="black" stroke-width="1" />
  <path d="M 170 200 C 180 210, 190 210, 200 200 C 190 190, 180 190, 170 200" fill="white" stroke="black" stroke-width="1" />
  <path d="M 200 200 C 210 190, 220 190, 230 200 C 220 210, 210 210, 200 200" fill="white" stroke="black" stroke-width="1" />
</svg>

