<svg viewBox="0 0 800 1200" xmlns="http://www.w3.org/2000/svg">
  <!-- Cabello -->
  <path d="M 400 50 C 350 50, 300 70, 280 100 C 260 130, 250 160, 260 200 C 270 240, 290 270, 320 290 C 350 310, 380 320, 410 310 C 440 300, 460 280, 470 250 C 480 220, 480 190, 470 160 C 460 130, 440 100, 410 80 C 380 60, 350 50, 400 50 Z" fill="white" stroke="black" stroke-width="2" />
  
  <!-- Rostro -->
  <path d="M 320 290 C 300 310, 290 340, 300 370 C 310 400, 330 420, 360 430 C 390 440, 420 430, 440 410 C 460 390, 470 360, 460 330 C 450 300, 430 280, 400 270 C 370 260, 340 270, 320 290 Z" fill="white" stroke="black" stroke-width="2" />
  
  <!-- Ojos -->
  <ellipse cx="350" cy="330" rx="15" ry="10" fill="white" stroke="black" stroke-width="2" />
  <ellipse cx="410" cy="330" rx="15" ry="10" fill="white" stroke="black" stroke-width="2" />
  
  <!-- Camiseta -->
  <path d="M 300 520 C 280 540, 270 570, 280 600 C 290 630, 310 650, 340 660 L 340 800 C 320 820, 310 850, 320 880 C 330 910, 350 930, 380 940 L 420 940 C 450 930, 470 910, 480 880 C 490 850, 480 820, 460 800 L 460 660 C 490 650, 510 630, 520 600 C 530 570, 520 540, 500 520 L 300 520 Z" fill="white" stroke="black" stroke-width="2" />
  
  <!-- Nombre Vinicius Jr. -->
  <path d="M 300 1000 L 320 1050 L 340 1000 M 350 1000 L 350 1050 M 360 1000 L 380 1050 L 400 1000 M 410 1000 L 410 1050 M 420 1000 L 440 1050 L 460 1000 M 470 1000 L 470 1050 L 490 1050 M 500 1000 L 500 1050" fill="none" stroke="black" stroke-width="2" />
</svg>

